# xmcd
#
# Track frame offsets:
#	150
#	13515
#	22755
#	36575
#	47855
#	59830
#	72242
#	86502
#	99177
#	111065
#	125537
#	138810
#	150392
#	161310
#	169837
#	180822
#	193390
#	212075
#
# Disc length: 3047 seconds
#
# Revision: 0
# Processed by: cddbd v1.5.2PL0 Copyright (c) Steve Scherf et al.
# Submitted via: EasyCDDAExtractor 4.5.2.1
#
DISCID=e90be512
DTITLE=Oswaldinho do Acordeon - Pedro Sertanejo e Banda Arikerê - Na onda do f
DTITLE=orró
DYEAR=1900
DGENRE=Forró
TTITLE0=Forró no irará
TTITLE1=Respeite o tempero
TTITLE2=Mengando
TTITLE3=Forró trote
TTITLE4=Água com açúcar
TTITLE5=Cachiado
TTITLE6=Forró em Tambaúba
TTITLE7=A noite toda
TTITLE8=Homenagem a João do Jílo
TTITLE9=Guarda e live no forró
TTITLE10=Avueto do norte
TTITLE11=Arrasta pé da despedida
TTITLE12=Ventania
TTITLE13=Balaio do norte
TTITLE14=P'ra ti vai
TTITLE15=Xuleia
TTITLE16=O fole roncou
TTITLE17=Forró vingado
EXTD=
EXTT0=
EXTT1=
EXTT2=
EXTT3=
EXTT4=
EXTT5=
EXTT6=
EXTT7=
EXTT8=
EXTT9=
EXTT10=
EXTT11=
EXTT12=
EXTT13=
EXTT14=
EXTT15=
EXTT16=
EXTT17=
PLAYORDER=
